<svg width="178" height="48" viewBox="0 0 178 48" fill="none" xmlns="http://www.w3.org/2000/svg">
<g clip-path="url(#clip0_50_105)">
<path d="M37.5235 25.1183C37.5235 35.1937 29.3651 43.364 19.2982 43.364C9.23124 43.364 1.07564 35.1937 1.07564 25.1183C1.07564 15.0428 9.23399 6.87253 19.3009 6.87253C29.3679 6.87253 37.5262 15.04 37.5262 25.1183H37.5235Z" fill="white"/>
<path d="M7.07444 24.8863C7.07444 16.7161 12.985 9.93188 20.7572 8.57339C19.8277 8.41049 18.8734 8.32213 17.8943 8.32213C8.75962 8.32213 1.35146 15.7386 1.35146 24.8863C1.35146 34.034 8.75962 41.4505 17.8971 41.4505C18.8734 41.4505 19.8277 41.3622 20.76 41.1993C12.9877 39.8408 7.0772 33.0566 7.0772 24.8863H7.07444Z" fill="#DCD4FF"/>
<path d="M18.719 43.7285C8.39831 43.7285 0 35.3235 0 24.9913C0 14.659 8.39831 6.25127 18.719 6.25127C29.0397 6.25127 37.438 14.659 37.438 24.9913C37.438 35.3235 29.0397 43.7313 18.719 43.7313V43.7285ZM18.719 8.18132C9.46292 8.18132 1.93065 15.722 1.93065 24.9885C1.93065 34.255 9.46292 41.7957 18.719 41.7957C27.9751 41.7957 35.5073 34.2577 35.5073 24.9885C35.5073 15.7193 27.9751 8.18132 18.719 8.18132V8.18132Z" fill="#2F1D8B"/>
<path d="M33.4167 43.2508C33.4167 45.3382 31.726 47.0308 29.6382 47.0308H8.95819C6.87309 47.0308 5.17964 45.3382 5.17964 43.2508C5.17964 41.1634 6.87034 39.4708 8.95819 39.4708H29.6409C31.726 39.4708 33.4195 41.1634 33.4195 43.2508H33.4167Z" fill="white"/>
<path d="M29.6409 48H8.9582C6.34355 48 4.21432 45.8712 4.21432 43.2536C4.21432 40.636 6.34079 38.5071 8.9582 38.5071H29.6409C32.2556 38.5071 34.3848 40.636 34.3848 43.2536C34.3848 45.8712 32.2583 48 29.6409 48ZM8.96096 40.4372C7.41092 40.4372 6.14773 41.699 6.14773 43.2508C6.14773 44.8026 7.40817 46.0644 8.96096 46.0644H29.6409C31.191 46.0644 32.4542 44.8026 32.4542 43.2508C32.4542 41.699 31.1937 40.4372 29.6409 40.4372H8.9582H8.96096Z" fill="#2F1D8B"/>
<path d="M18.6693 6.10768C20.3711 8.50161 19.8112 11.8233 17.4199 13.5269C15.0287 15.2306 11.7107 14.67 10.0118 12.2761C8.31005 9.88219 8.86994 6.56051 11.2612 4.85688C13.6524 3.15324 16.9704 3.71376 18.6693 6.10768Z" fill="#7F4C0E"/>
<path d="M14.3447 15.4763C12.3148 15.4763 10.4007 14.4878 9.22297 12.8339C7.21786 10.0092 7.87979 6.07731 10.7013 4.06719C11.7714 3.30511 13.0263 2.90474 14.3364 2.90474C16.3664 2.90474 18.2805 3.89323 19.4582 5.54717C21.4633 8.37184 20.8013 12.3037 17.9798 14.3139C16.9097 15.0759 15.6548 15.4763 14.3447 15.4763ZM14.3364 4.83755C13.4318 4.83755 12.563 5.11643 11.8211 5.64381C9.86836 7.03543 9.40776 9.75794 10.7978 11.7128C11.6115 12.8587 12.9381 13.5435 14.3447 13.5435C15.2493 13.5435 16.1181 13.2646 16.8601 12.7372C18.8128 11.3456 19.2734 8.6231 17.8833 6.6682C17.0697 5.52232 15.743 4.83755 14.3364 4.83755V4.83755Z" fill="#351D03"/>
<path d="M16.4794 7.66499C17.3207 8.84952 18.6004 12.682 17.4172 13.5242C16.234 14.3663 13.0374 11.8978 12.1962 10.7133C11.355 9.52877 11.6308 7.88588 12.814 7.04373C13.9972 6.20157 15.6382 6.48045 16.4794 7.66222V7.66499Z" fill="#351D03"/>
<path d="M28.3915 10.462C28.6453 10.5283 31.9191 11.1799 36.2437 18.0525C40.2981 24.4943 39.1535 25.0852 39.1535 25.0852H42.2011C42.2011 25.0852 44.2531 40.8265 29.4092 39.4183C12.4609 27.9264 27.1531 10.1418 28.3888 10.4593L28.3915 10.462Z" fill="#7F4C0E"/>
<path d="M35.1901 26.0543C35.1901 26.0543 32.0708 34.89 34.9943 39.0124V38.5044C34.9943 38.5044 43.1417 36.7483 41.9971 27.2747C41.7212 24.9857 41.713 25.6263 41.713 25.6263" fill="#A8661E"/>
<path d="M31.2296 40.4786C30.6173 40.4786 29.9774 40.4455 29.3237 40.3847L29.0783 40.3626L28.8742 40.2246C19.403 33.8049 19.4968 25.665 21.2426 19.966C22.834 14.7722 26.7256 9.49287 28.3584 9.49287C28.4522 9.49287 28.546 9.50392 28.6342 9.52877C29.845 9.82421 33.0664 11.1882 37.0629 17.5417C39.3355 21.1533 40.0692 23.0446 40.2347 24.1243H43.0534L43.1637 24.9664C43.2023 25.2674 44.0766 32.3856 40.105 36.914C38.0282 39.2803 35.044 40.4814 31.2296 40.4814V40.4786ZM29.7512 38.4823C33.7173 38.8081 36.7071 37.8527 38.6488 35.6438C41.3158 32.6093 41.4013 27.9512 41.3131 26.0571H35.1901L38.3261 24.4335C38.2516 23.9116 37.8103 22.3571 35.4301 18.5716C32.0239 13.1569 29.3596 11.8067 28.4439 11.4864C27.2 12.4225 22.7402 18.0469 22.3072 24.671C21.9487 30.1712 24.453 34.8155 29.7512 38.4823V38.4823Z" fill="#351D03"/>
<path d="M31.8033 25.908C32.6334 25.908 33.3064 25.2342 33.3064 24.4031C33.3064 23.572 32.6334 22.8983 31.8033 22.8983C30.9731 22.8983 30.3001 23.572 30.3001 24.4031C30.3001 25.2342 30.9731 25.908 31.8033 25.908Z" fill="#351D03"/>
<path d="M38.6708 25.7174C38.6708 25.7174 38.9604 29.8178 41.7902 29.4312L42.2039 25.0879" fill="#351D03"/>
<path d="M41.4289 30.4252C40.6925 30.4252 40.0195 30.1905 39.4596 29.7349C37.9399 28.5007 37.7276 26.0626 37.7083 25.7892L39.6334 25.6512C39.672 26.1675 39.9368 27.6364 40.6787 28.2384C40.7559 28.2991 40.8359 28.3516 40.9187 28.3902L41.2413 24.9995L43.1637 25.1818L42.6783 30.2872L41.9198 30.3893C41.7543 30.4114 41.5889 30.4225 41.4289 30.4225V30.4252Z" fill="#351D03"/>
<path d="M35.9596 34.0175C35.9596 34.0175 37.118 36.4998 39.5203 36.1049Z" fill="#2F1D8B"/>
<path d="M39.0156 37.1128C36.9167 37.1128 35.5459 35.4146 35.0853 34.4261C34.8592 33.9429 35.0688 33.3686 35.5514 33.1422C36.0314 32.9158 36.605 33.1229 36.8312 33.6033C36.8698 33.6862 37.7303 35.4202 39.3631 35.1496C39.8899 35.0612 40.3863 35.4202 40.4718 35.9448C40.5573 36.4722 40.2015 36.9692 39.6775 37.0548C39.4486 37.0934 39.228 37.11 39.0156 37.11V37.1128Z" fill="#351D03"/>
<path d="M21.6729 43.7506C21.6729 44.3083 21.2206 44.7612 20.6634 44.7612C20.1063 44.7612 19.654 44.3083 19.654 43.7506C19.654 43.1928 20.1063 42.74 20.6634 42.74C21.2206 42.74 21.6729 43.1928 21.6729 43.7506Z" fill="#2F1D8B"/>
<path d="M27.6689 43.7506C27.6689 44.3083 27.2166 44.7612 26.6595 44.7612C26.1023 44.7612 25.65 44.3083 25.65 43.7506C25.65 43.1928 26.1023 42.74 26.6595 42.74C27.2166 42.74 27.6689 43.1928 27.6689 43.7506Z" fill="#2F1D8B"/>
<path d="M7.07444 27.5591H1.03704C0.504733 27.5591 0.0717163 27.1256 0.0717163 26.5927C0.0717163 26.0598 0.504733 25.6263 1.03704 25.6263H7.07444C7.60675 25.6263 8.03977 26.0598 8.03977 26.5927C8.03977 27.1256 7.60675 27.5591 7.07444 27.5591Z" fill="#2F1D8B"/>
<path d="M8.19973 31.93H2.16233C1.63002 31.93 1.19701 31.4965 1.19701 30.9636C1.19701 30.4307 1.63002 29.9972 2.16233 29.9972H8.19973C8.73204 29.9972 9.16506 30.4307 9.16506 30.9636C9.16506 31.4965 8.73204 31.93 8.19973 31.93V31.93Z" fill="#2F1D8B"/>
<path d="M53.0679 32.4436V6.76208H58.0462V8.31661C59.6404 7.01334 61.5269 6.36171 63.703 6.36171C66.3315 6.36171 68.5683 7.33088 70.4162 9.27197C72.2613 11.2131 73.1853 13.607 73.1853 16.451C73.1853 19.0824 72.3744 21.3438 70.7554 23.2324C69.8783 24.243 68.7889 25.041 67.4899 25.6236C66.188 26.2089 64.8338 26.5016 63.4245 26.5016C61.4855 26.5016 59.759 25.9162 58.2448 24.7483V32.4409H53.0652L53.0679 32.4436ZM58.2476 13.5435V19.3281C59.3618 20.9241 60.9174 21.7193 62.9087 21.7193C64.3705 21.7193 65.584 21.2223 66.5549 20.2227C67.5229 19.226 68.0084 17.9696 68.0084 16.4537C68.0084 15.0179 67.5423 13.7754 66.6128 12.7262C65.6833 11.6769 64.4863 11.1496 63.0273 11.1496C61.036 11.1496 59.4418 11.9475 58.2476 13.5435Z" fill="#2F1D8B"/>
<path d="M79.322 23.5941C77.3555 21.653 76.3736 19.2729 76.3736 16.4537C76.3736 13.6346 77.3555 11.249 79.322 9.29406C81.2857 7.33916 83.7293 6.36171 86.6529 6.36171C89.5764 6.36171 92.0173 7.33916 93.9838 9.29406C95.9476 11.249 96.9322 13.6346 96.9322 16.4537C96.9322 19.2729 95.9503 21.653 93.9838 23.5941C92.0173 25.5352 89.5737 26.5044 86.6529 26.5044C83.7321 26.5044 81.2885 25.5352 79.322 23.5941M82.9874 12.6875C82.0331 13.7119 81.5532 14.9682 81.5532 16.4565C81.5532 17.9448 82.0331 19.1956 82.9874 20.2062C83.9417 21.2167 85.1663 21.722 86.6529 21.722C88.1395 21.722 89.3613 21.2167 90.3184 20.2062C91.2754 19.1956 91.7526 17.9475 91.7526 16.4565C91.7526 14.9655 91.2754 13.7119 90.3184 12.6875C89.3613 11.6631 88.1395 11.1523 86.6529 11.1523C85.1663 11.1523 83.9445 11.6659 82.9874 12.6875" fill="#2F1D8B"/>
<path d="M106.492 1.02438H101.312V26.1068H106.492V1.02438Z" fill="#2F1D8B"/>
<path d="M130.992 6.76208V26.1068H126.01V24.5522C124.471 25.8555 122.676 26.5071 120.632 26.5071C117.656 26.5071 115.226 25.4165 113.343 23.2379C111.696 21.3217 110.874 19.063 110.874 16.4565C110.874 13.6125 111.795 11.2186 113.643 9.2775C115.488 7.3364 117.725 6.36723 120.356 6.36723C122.533 6.36723 124.419 7.01887 126.013 8.32213V6.7676H130.994L130.992 6.76208ZM125.812 19.3254V13.5407C124.618 11.9448 123.023 11.1468 121.032 11.1468C119.57 11.1468 118.376 11.6714 117.447 12.7207C116.517 13.7727 116.054 15.0152 116.054 16.451C116.054 17.9669 116.537 19.2232 117.507 20.22C118.475 21.2168 119.692 21.7165 121.154 21.7165C123.145 21.7165 124.7 20.9185 125.815 19.3254" fill="#2F1D8B"/>
<path d="M149.316 6.52462L148.718 11.3511C148.318 11.2186 147.694 11.1523 146.845 11.1523C145.811 11.1523 144.859 11.445 143.999 12.0304C143.135 12.6157 142.517 13.2536 142.145 13.9439V26.1095H136.966V6.76208H141.947V8.71698C143.221 7.14864 145.094 6.36447 147.565 6.36447C147.99 6.36447 148.574 6.41693 149.316 6.52462Z" fill="#2F1D8B"/>
<path d="M158.478 6.76208H153.299V26.1068H158.478V6.76208Z" fill="#2F1D8B"/>
<path d="M162.541 23.9116L165.051 20.2034C166.457 21.4791 168.223 22.1169 170.349 22.1169C171.039 22.1169 171.623 21.965 172.103 21.6585C172.583 21.352 172.82 20.96 172.82 20.4823C172.82 19.9494 172.5 19.4993 171.863 19.1266C171.226 18.7538 170.448 18.4225 169.533 18.1298C168.617 17.8371 167.693 17.4975 166.764 17.1137C165.834 16.7271 165.051 16.1307 164.414 15.3189C163.777 14.5071 163.457 13.5297 163.457 12.3866C163.457 10.6056 164.193 9.156 165.669 8.03773C167.144 6.92222 168.876 6.36171 170.868 6.36171C172.062 6.36171 173.284 6.55499 174.533 6.93879C175.78 7.32535 176.737 7.78371 177.402 8.31385L174.972 12.0635C173.75 11.1855 172.514 10.7464 171.268 10.7464C170.523 10.7464 169.9 10.8872 169.395 11.1661C168.89 11.445 168.639 11.8233 168.639 12.3037C168.639 12.7566 168.956 13.1404 169.596 13.4607C170.233 13.7782 171.017 14.0847 171.946 14.3774C172.876 14.67 173.797 15.0235 174.715 15.4349C175.631 15.8463 176.409 16.4841 177.046 17.3484C177.683 18.2126 178.003 19.2701 178.003 20.5209C178.003 22.3019 177.253 23.7432 175.752 24.8477C174.252 25.9521 172.44 26.5016 170.313 26.5016C167.47 26.5016 164.883 25.6374 162.544 23.9089" fill="#2F1D8B"/>
<path d="M54.1905 44.0902C54.5987 44.5872 55.1751 44.9876 55.8894 44.9876C56.5348 44.9876 57.103 44.5706 57.103 43.9411C57.103 42.8753 55.6329 42.7566 54.7062 42.1491C54.2098 41.8205 53.8209 41.3428 53.8209 40.6167C53.8209 39.6005 54.7145 38.7639 55.928 38.7639C56.8134 38.7639 57.4284 39.1532 57.798 39.4597L57.2105 40.1859C56.8327 39.8684 56.4052 39.7082 55.9667 39.7082C55.3902 39.7082 54.8138 40.0368 54.8138 40.6443C54.8138 41.5306 56.2949 41.7184 57.1885 42.3148C57.6574 42.624 58.0931 43.11 58.0931 43.908C58.0931 45.1312 57.1499 45.9291 55.9363 45.9291C54.982 45.9291 54.116 45.5122 53.5009 44.7639L54.1877 44.0874L54.1905 44.0902Z" fill="#541DFF"/>
<path d="M65.2062 38.8661H69.9776V39.8104H68.0884V45.8325H67.0955V39.8104H65.2062V38.8661Z" fill="#541DFF"/>
<path d="M78.409 45.0152C77.9622 44.5265 77.6837 43.8804 77.6837 42.9443V38.8633H78.6766V42.994C78.6766 43.6512 78.8365 44.0598 79.1123 44.3663C79.4598 44.7556 79.9756 44.9821 80.5631 44.9821C81.1505 44.9821 81.6663 44.7529 82.0138 44.3663C82.2924 44.0571 82.4524 43.6484 82.4524 42.994V38.8633H83.4452V42.9443C83.4452 43.8804 83.1667 44.5265 82.7199 45.0152C82.1931 45.5812 81.4181 45.9319 80.5631 45.9319C79.7081 45.9319 78.9331 45.584 78.4063 45.0152" fill="#541DFF"/>
<path d="M91.9015 45.8325V38.8661H93.9893C95.0926 38.8661 95.8097 39.1063 96.3751 39.5232C97.2301 40.1611 97.7679 41.1937 97.7679 42.3479C97.7679 43.5021 97.2411 44.5375 96.3861 45.1753C95.8207 45.5923 95.0953 45.8325 93.9893 45.8325H91.9015ZM95.9283 40.3985C95.4897 40.0203 94.9161 39.8104 93.9397 39.8104H92.8972V44.8854H93.9397C94.9161 44.8854 95.4897 44.6756 95.9283 44.2973C96.4551 43.8307 96.7722 43.1238 96.7722 42.3452C96.7722 41.5665 96.4551 40.8624 95.9283 40.3958" fill="#541DFF"/>
<path d="M106.765 38.8661H105.772V45.8325H106.765V38.8661Z" fill="#541DFF"/>
<path d="M118.249 38.7667C120.216 38.7667 121.73 40.3185 121.73 42.3507C121.73 44.3829 120.219 45.9347 118.249 45.9347C116.28 45.9347 114.769 44.3829 114.769 42.3507C114.769 40.3185 116.28 38.7667 118.249 38.7667ZM118.249 44.9876C119.67 44.9876 120.734 43.8638 120.734 42.3507C120.734 40.8376 119.67 39.7138 118.249 39.7138C116.829 39.7138 115.764 40.8486 115.764 42.3507C115.764 43.8527 116.829 44.9876 118.249 44.9876Z" fill="#541DFF"/>
<path d="M158.66 2.67004C158.66 4.1445 157.466 5.34008 155.996 5.34008C154.526 5.34008 153.329 4.1445 153.329 2.67004C153.329 1.19558 154.523 0 155.996 0C157.469 0 158.66 1.19558 158.66 2.67004Z" fill="#2F1D8B"/>
</g>
<defs>
<clipPath id="clip0_50_105">
<rect width="178" height="48" fill="white"/>
</clipPath>
</defs>
</svg>
