<svg width="38" height="38" viewBox="0 0 38 38" fill="none" xmlns="http://www.w3.org/2000/svg">
<path d="M0 19C0 8.50659 8.50659 0 19 0C29.4934 0 38 8.50659 38 19C38 29.4934 29.4934 38 19 38C8.50659 38 0 29.4934 0 19Z" fill="#541DFF"/>
<path d="M10.8607 11H26.1393C26.8952 11.0013 27.6201 11.3003 28.1559 11.8321C28.6917 12.3638 28.9951 13.0852 29 13.839V23.1471C28.9987 23.9035 28.6969 24.6284 28.1608 25.1631C27.6247 25.6978 26.8978 25.9988 26.1393 26H10.8607C10.1022 25.9987 9.37535 25.6978 8.83918 25.1631C8.30304 24.6284 8.00125 23.9035 8 23.1471V13.839C8.00488 13.0852 8.30827 12.3638 8.8441 11.8321C9.37991 11.3003 10.1049 11.0013 10.8607 11ZM9.2741 13.839V23.1471C9.2741 23.4422 9.35841 23.7311 9.51662 23.9801L15.812 19.5867C15.6626 19.477 15.5223 19.3559 15.392 19.2238L9.38611 13.2757C9.3145 13.4553 9.27641 13.6461 9.27413 13.839L9.2741 13.839ZM10.8607 12.2567C10.666 12.2583 10.4733 12.2947 10.2914 12.3635L16.2882 18.321C16.8771 18.9018 17.6717 19.2277 18.5002 19.2277C19.3286 19.2277 20.1233 18.9018 20.7121 18.321L26.709 12.3774C26.527 12.3086 26.3343 12.2723 26.1396 12.2706L10.8607 12.2567ZM27.4835 23.9658C27.6391 23.7207 27.7231 23.4369 27.726 23.1467V13.8386C27.7253 13.6409 27.6876 13.4451 27.614 13.2614L21.6081 19.2234C21.4779 19.3555 21.3376 19.4766 21.1881 19.5863L27.4835 23.9658ZM26.1394 24.715C26.1983 24.7199 26.2579 24.7199 26.3168 24.715L19.928 20.2613C19.0026 20.5778 17.9973 20.5778 17.0719 20.2613L10.6831 24.7014V24.7011C10.742 24.7059 10.8016 24.7059 10.8605 24.7011L26.1394 24.715Z" fill="white"/>
</svg>
