<svg width="38" height="38" viewBox="0 0 38 38" fill="none" xmlns="http://www.w3.org/2000/svg">
<path d="M0 19C0 8.50659 8.50659 0 19 0C29.4934 0 38 8.50659 38 19C38 29.4934 29.4934 38 19 38C8.50659 38 0 29.4934 0 19Z" fill="#47C756"/>
<path d="M27.3766 9.48768C25.1342 7.23994 22.1526 6.00134 18.9759 6C12.4296 6 7.10235 11.3347 7.09967 17.8919C7.0989 19.988 7.64564 22.0339 8.68478 23.8375L7 30L13.2957 28.3464C15.0303 29.294 16.9832 29.7933 18.9708 29.7942H18.9759C25.521 29.7942 30.8491 24.4585 30.8519 17.9016C30.8529 14.7237 29.6186 11.7356 27.3766 9.48778V9.48768ZM18.9758 27.7855H18.9719C17.2004 27.7845 15.4632 27.3081 13.948 26.4074L13.5873 26.1932L9.85139 27.1744L10.8488 23.5269L10.6139 23.153C9.62569 21.5791 9.10406 19.7603 9.10473 17.8926C9.10694 12.4425 13.5347 8.00861 18.9795 8.00861C21.6161 8.00966 24.0943 9.03917 25.958 10.9075C27.8216 12.7758 28.8473 15.2594 28.8465 17.9007C28.8442 23.351 24.4162 27.7856 18.9758 27.7856V27.7855Z" fill="#E0E0E0"/>
<path d="M7.54517 29.3162L9.15309 23.4352C8.1611 21.7141 7.63947 19.7613 7.64014 17.7614C7.64263 11.504 12.7266 6.41299 18.9732 6.41299C22.0051 6.41434 24.8505 7.59629 26.99 9.74141C29.1299 11.8865 30.3078 14.7378 30.3065 17.7703C30.3039 24.0279 25.2196 29.1193 18.9737 29.1193C18.9732 29.1193 18.974 29.1193 18.9737 29.1193H18.9686C17.072 29.1187 15.2083 28.6418 13.5531 27.7381L7.54517 29.3162Z" fill="url(#paint0_linear_37_114)"/>
<path fill-rule="evenodd" clip-rule="evenodd" d="M16.0412 12.8433C15.8214 12.354 15.5902 12.3442 15.381 12.3355C15.2101 12.3281 15.0144 12.3286 14.8189 12.3286C14.6234 12.3286 14.3055 12.4022 14.0367 12.6963C13.7678 12.9903 13.0099 13.7011 13.0099 15.1468C13.0099 16.5925 14.0611 17.9895 14.2076 18.1858C14.3544 18.3817 16.2369 21.4431 19.2185 22.621C21.6964 23.5998 22.2006 23.4051 22.7385 23.3561C23.2764 23.3072 24.474 22.6454 24.7185 21.9593C24.9629 21.2733 24.9629 20.6853 24.8896 20.5623C24.8163 20.4399 24.6207 20.3664 24.3274 20.2195C24.034 20.0726 22.5919 19.3617 22.323 19.2637C22.054 19.1656 21.8584 19.1167 21.6628 19.4109C21.4672 19.7048 20.9055 20.3665 20.7343 20.5623C20.5631 20.7587 20.3921 20.7832 20.0986 20.6363C19.8053 20.4889 18.8605 20.1789 17.7397 19.1779C16.8677 18.3992 16.279 17.4373 16.1079 17.1432C15.9367 16.8493 16.0896 16.6902 16.2367 16.5437C16.3683 16.4121 16.53 16.2007 16.6767 16.0291C16.8231 15.8576 16.872 15.7351 16.9698 15.5391C17.0676 15.3429 17.0187 15.1714 16.9454 15.0244C16.872 14.8774 16.3019 13.4244 16.0412 12.8434V12.8433Z" fill="white"/>
<path d="M27.2796 9.44985C25.063 7.22793 22.1155 6.00364 18.9753 6.0022C12.5042 6.0022 7.23807 11.2758 7.23548 17.7576C7.23471 19.8296 7.77513 21.8521 8.80239 23.6349L7.13696 29.7267L13.3604 28.092C15.0751 29.0287 17.0057 29.5223 18.9703 29.5231H18.9754C25.4454 29.5231 30.7123 24.2486 30.715 17.767C30.7161 14.6256 29.496 11.6719 27.2797 9.44976L27.2796 9.44985ZM18.9753 27.5376H18.9715C17.2203 27.5366 15.503 27.0658 14.0051 26.1754L13.6486 25.9637L9.95548 26.9337L10.9414 23.3281L10.7092 22.9585C9.73237 21.4026 9.21668 19.6046 9.21745 17.7585C9.21956 12.3709 13.5966 7.98796 18.9788 7.98796C21.5853 7.98902 24.0349 9.00672 25.8773 10.8536C27.7196 12.7004 28.7334 15.1554 28.7327 17.7665C28.7304 23.1542 24.3532 27.5378 18.9752 27.5378L18.9753 27.5376Z" fill="white"/>
<defs>
<linearGradient id="paint0_linear_37_114" x1="18.9187" y1="29.3236" x2="18.9187" y2="6.42935" gradientUnits="userSpaceOnUse">
<stop stop-color="#20B038"/>
<stop offset="1" stop-color="#60D66A"/>
</linearGradient>
</defs>
</svg>
